<?xml version="1.0" encoding="UTF-8" standalone="no"?><!DOCTYPE svg PUBLIC "-//W3C//DTD SVG 1.1//EN" "http://www.w3.org/Graphics/SVG/1.1/DTD/svg11.dtd"><svg width="100%" height="100%" viewBox="0 0 829 548" version="1.1" xmlns="http://www.w3.org/2000/svg" xmlns:xlink="http://www.w3.org/1999/xlink" xml:space="preserve" xmlns:serif="http://www.serif.com/" style="fill-rule:evenodd;clip-rule:evenodd;stroke-linejoin:round;stroke-miterlimit:2;"><g><path d="M260.015,404.33l-7.683,4.65c-9.292,5.62 -21.383,2.64 -27.005,-6.66l-7.683,-12.71c-3.877,-6.39 -3.668,-14.11 -0.135,-20.13l42.506,34.85Z" style="fill:#1a323d;fill-rule:nonzero;"/><path d="M313.491,448.19l-27.844,16.83c-9.292,5.62 -21.383,2.64 -27.005,-6.66l-7.683,-12.71c-5.622,-9.29 -2.638,-21.38 6.653,-27l11.436,-6.91l44.443,36.45Z" style="fill:#1a323d;fill-rule:nonzero;"/><path d="M369.919,493.78l-20.252,12.25c-9.292,5.62 -21.383,2.64 -27.005,-6.66l-7.683,-12.71c-5.621,-9.3 -2.638,-21.38 6.654,-27l3.371,-2.03l15.716,12.88c1.374,1.13 2.854,2.11 4.426,2.96l24.773,20.31Z" style="fill:#1a323d;fill-rule:nonzero;"/><path d="M424.709,538.7l-10.58,6.4c-9.29,5.62 -21.38,2.64 -27.01,-6.66l-7.68,-12.71c-4.46,-7.36 -3.51,-16.48 1.7,-22.75l43.57,35.72Z" style="fill:#1a323d;fill-rule:nonzero;"/><path d="M90.591,215.081l106.446,-129.81c3.954,-4.822 9.692,-7.319 15.477,-7.319c0.888,0 1.776,0.077 2.66,0.195l0.026,-0.031c2.664,-3.249 2.19,-8.042 -1.059,-10.705l-74.641,-61.207c-3.248,-2.664 -8.041,-2.19 -10.705,1.059l-127.07,154.961c-2.664,3.248 -2.189,8.041 1.059,10.704l74.641,61.208c2.867,2.35 6.934,2.253 9.682,-0.034c-2.102,-6.301 -1.039,-13.505 3.484,-19.021Z" style="fill:#1a323d;fill-rule:nonzero;"/><path d="M599.589,411.98l-118.5,-97.177l6.65,-8.113l110.39,90.52c10.08,8.27 24.96,6.8 33.23,-3.28c8.26,-10.08 6.79,-24.96 -3.29,-33.23l-117.64,-96.458l-3.65,-2.998c-22.61,1.358 -44.35,-1.254 -59.58,-3.968c-4.41,-0.786 -8.98,1.08 -11.65,4.755l-52.8,72.849c-12.22,16.86 -34.196,23.09 -53.443,15.16c-4.122,-1.7 -7.946,-3.99 -11.367,-6.79c-0.001,0 -0.002,0 -0.003,-0.01c-16.513,-13.54 -21.172,-37.043 -11.079,-55.882l57.552,-107.43c10.99,-20.508 29.61,-36.062 51.62,-43.306l-6.38,-5.227c-2.07,-1.696 -4.76,-2.427 -7.41,-2.008l-122.706,19.466c-2.643,0.42 -5.338,-0.311 -7.407,-2.008l-59.624,-48.892l-106.446,129.809l74.909,61.427c1.412,1.158 2.456,2.705 3.001,4.448l12.648,32.123c0.545,1.75 1.589,3.29 3.002,4.45l153.258,125.68c0.832,0.68 1.749,1.18 2.705,1.54l103.5,84.87c10.08,8.26 24.96,6.79 33.22,-3.29l3.99,-4.87c8.27,-10.08 6.8,-24.95 -3.28,-33.22l-98.63,-80.88l7.21,-8.28l110.39,90.52c10.08,8.27 24.95,6.79 33.22,-3.29l6.65,-8.11c8.27,-10.08 6.8,-24.96 -3.28,-33.22l-110.39,-90.53l6.32,-7.7l118.5,97.17c10.08,8.27 24.96,6.8 33.23,-3.28l6.65,-8.12c8.27,-10.08 6.79,-24.95 -3.29,-33.22Z" style="fill:#1a323d;fill-rule:nonzero;"/><path d="M826.719,164.44l-118.86,-161.345c-2.49,-3.382 -7.26,-4.104 -10.64,-1.612l-77.71,57.252c-2.13,1.567 -3.2,4.031 -3.09,6.486c4.68,0.966 9,3.589 12.02,7.669l108.54,146.438c3.13,4.232 4.34,9.308 3.79,14.176c2.19,0.632 4.64,0.281 6.62,-1.177l77.71,-57.251c3.39,-2.492 4.11,-7.253 1.62,-10.636Z" style="fill:#1a323d;fill-rule:nonzero;"/><path d="M672.659,285.873c-1.89,-4.087 -3.13,-13.492 2.32,-17.853c11.48,-9.196 45.93,-36.783 45.93,-36.783l-108.53,-146.438l-68.42,35.801l0.18,0.248l-118.51,31.441c-19.52,5.18 -36.02,18.227 -45.56,36.03l-57.296,106.952c-7.435,13.878 -2.093,31.199 12.18,37.849c11.834,5.51 25.816,1.81 33.406,-8.66l52.81,-72.855c6.66,-9.189 17.98,-13.811 29.15,-11.82c15.38,2.74 38.76,5.55 62.16,3.199l18.58,15.233l0.07,0.014l106.24,87.119c27.34,-31.473 38.39,-42.468 35.29,-59.477Z" style="fill:#1a323d;fill-rule:nonzero;"/></g></svg>