<?xml version="1.0" encoding="UTF-8" standalone="no"?><!DOCTYPE svg PUBLIC "-//W3C//DTD SVG 1.1//EN" "http://www.w3.org/Graphics/SVG/1.1/DTD/svg11.dtd"><svg width="100%" height="100%" viewBox="0 0 209 241" version="1.1" xmlns="http://www.w3.org/2000/svg" xmlns:xlink="http://www.w3.org/1999/xlink" xml:space="preserve" xmlns:serif="http://www.serif.com/" style="fill-rule:evenodd;clip-rule:evenodd;stroke-linejoin:round;stroke-miterlimit:2;"><g><path d="M170.07,76.86c-1.352,10.086 -10.617,17.702 -21.34,16.31c-5.02,-0.67 -9.49,-3.26 -12.57,-7.29c-3.079,-4.03 -4.401,-9.02 -3.73,-14.05c1.397,-10.406 11.071,-17.734 21.34,-16.3c10.37,1.384 17.694,10.899 16.3,21.33Zm-47.05,-6.29c-0.639,4.74 -0.08,9.47 1.57,13.82c-1.23,3.32 -23.997,55.427 -23.997,55.427c-0.14,0.04 -9.413,2.002 -17.803,5.913l-8.27,-4.77c-1.571,-0.9 -3.071,-1.43 -4.42,-1.75l62.63,-115.96l0.351,12.25c0.159,5.82 -0.121,11.73 -0.841,17.66c-4.9,4.41 -8.3,10.49 -9.22,17.41Zm-83.53,155.45c-2.687,4.67 -8.51,7.17 -13.6,4.2c-4.612,-2.654 -5.7,-8.924 -3.01,-13.6l42.589,-68.421c1.371,0.05 2.791,0.111 4.311,0.991l8.15,4.7l-38.44,72.13Zm115.54,-179.9c-4.437,-0.594 -8.73,-0.148 -12.699,1.18c0.269,-4.04 0.349,-8.07 0.239,-12.07l-0.84,-29.97c-0.06,-2.15 -1.56,-3.99 -3.649,-4.48c-2.091,-0.49 -4.25,0.47 -5.271,2.36l-71.74,132.809c-0.92,1.601 -1.91,3.321 -2.31,5.071l-44.02,70.72c-5.321,9.225 -3.035,21.251 6.65,26.85c8.924,5.146 20.745,1.85 26.4,-7.97l41.2,-77.291c6.56,-2.939 10.7,-4.26 13.12,-5.019c2.83,-0.9 4.88,-1.561 6.06,-3.861c0.39,-0.769 22.14,-48.869 22.701,-50.209c4.419,4.56 10.21,7.48 16.598,8.34c15.716,2.102 29.957,-9.069 32.011,-24.45c2.097,-15.669 -8.921,-29.93 -24.45,-32.01Z" style="fill:#1d1d1b;fill-rule:nonzero;"/><path d="M22.868,31.637c-0.672,5.025 0.654,10.013 3.733,14.043c3.078,4.03 7.542,6.619 12.569,7.293c10.669,1.397 19.987,-6.191 21.337,-16.305c1.392,-10.399 -5.899,-19.941 -16.302,-21.336c-10.533,-1.406 -19.971,6.092 -21.337,16.305Zm15.042,30.743c-7.539,-1.007 -14.234,-4.892 -18.854,-10.937c-4.617,-6.044 -6.606,-13.526 -5.598,-21.067c2.066,-15.435 16.364,-26.565 32.005,-24.451c15.6,2.084 26.543,16.4 24.454,32.004c-2.058,15.392 -16.307,26.565 -32.007,24.451Z" style="fill:#1d1d1b;fill-rule:nonzero;"/><path d="M9.663,106.495c-1.388,10.374 5.926,19.948 16.303,21.338c10.482,1.41 19.97,-6.078 21.336,-16.304c1.389,-10.375 -5.924,-19.948 -16.303,-21.338c-10.525,-1.408 -19.969,6.086 -21.336,16.304Zm15.044,30.746c-15.565,-2.084 -26.533,-16.441 -24.454,-32.007c2.063,-15.418 16.341,-26.562 32.005,-24.451c15.566,2.083 26.537,16.441 24.454,32.007c-2.063,15.418 -16.341,26.563 -32.005,24.451Z" style="fill:#1d1d1b;fill-rule:nonzero;"/><path d="M167.251,193.749c-20.089,7.244 -46.312,3.583 -53.282,-15.769l-2.259,-6.27l34.921,-12.581l-4.231,25.98c-0.42,2.59 1.26,4.848 3.92,5.451c2.606,0.59 5.554,-1.257 5.45,-3.92l3.861,-23.72l18.109,15.81c1.97,1.719 4.97,1.519 6.69,-0.451c1.73,-1.979 1.53,-4.979 -0.45,-6.7l-19.83,-17.319l34.92,-12.58l2.27,6.28c4.846,13.483 -0.664,35.18 -30.089,45.789Zm39.019,-49.009l-3.87,-10.741c-0.431,-1.189 -1.31,-2.149 -2.45,-2.689c-1.14,-0.539 -2.441,-0.599 -3.63,-0.17l-92.29,33.25c-1.19,0.429 -2.15,1.309 -2.69,2.439c-0.54,1.141 -0.6,2.45 -0.17,3.641l3.87,10.729c6.824,18.957 31.146,32.695 65.44,21.481c24.413,-7.984 44.479,-33.788 35.79,-57.94Z" style="fill:#1d1d1b;fill-rule:nonzero;"/></g></svg>