<?xml version="1.0" encoding="UTF-8" standalone="no"?><!DOCTYPE svg PUBLIC "-//W3C//DTD SVG 1.1//EN" "http://www.w3.org/Graphics/SVG/1.1/DTD/svg11.dtd"><svg width="100%" height="100%" viewBox="0 0 894 920" version="1.1" xmlns="http://www.w3.org/2000/svg" xmlns:xlink="http://www.w3.org/1999/xlink" xml:space="preserve" xmlns:serif="http://www.serif.com/" style="fill-rule:evenodd;clip-rule:evenodd;stroke-linejoin:round;stroke-miterlimit:2;"><g><path d="M826.349,293.024l21.611,44.824l-86.09,0l-0,-104.768l86.09,0l-21.611,44.792c-2.328,4.788 -2.328,10.364 -0,15.152Zm-6.3,172.903l-58.179,0l-0,-93.146l58.179,0l0,93.146Zm0,128.079l-58.179,0l-0,-93.145l58.179,-0l0,93.145Zm0,128.049l-58.179,-0l-0,-93.147l58.179,-0l0,93.147Zm0,128.077l-58.179,0l-0,-93.144l58.179,0l0,93.144Zm-58.179,-733.508l58.179,0l0,81.521l-58.179,0l-0,-81.521Zm99.573,168.84c-0,-0 29.909,-61.985 30.051,-62.274c5.484,-11.369 -3.194,-25.045 -15.719,-25.045l-20.789,0l0,-98.972c0,-9.639 -7.815,-17.482 -17.451,-17.482l-75.665,-0l-0,-40.887c-0,-22.019 -18.962,-40.604 -41.421,-40.604l-662.792,0c-9.641,0 -17.451,7.812 -17.451,17.452l0,75.693l-23.277,-0c-22.493,-0 -22.585,34.935 0,34.935l23.277,0l0,162.98l-23.277,0c-22.493,0 -22.585,34.934 0,34.934l23.277,-0l0,174.667l-23.277,-0c-22.462,-0 -22.681,34.902 0,34.902l23.277,0l0,116.456c0,9.638 7.81,17.45 17.451,17.45c9.637,0 17.482,-7.812 17.482,-17.45l-0,-116.456l23.247,0c22.554,0 22.616,-34.902 0,-34.902l-23.247,-0l-0,-174.667l23.247,-0c22.176,-0 22.616,-34.934 0,-34.934l-23.247,0l-0,-162.98l23.247,0c22.493,0 22.68,-34.935 0,-34.935l-23.247,-0l-0,-58.211l645.31,-0c3.338,-0 6.488,3.182 6.488,5.67l0,836.797c0,3.307 -3.999,7.466 -6.488,7.466l-645.31,0l-0,-139.702l23.247,0c22.08,0 22.711,-34.934 0,-34.934l-81.457,-0c-22.21,-0 -22.65,34.934 0,34.934l23.277,0l0,157.183c0,9.64 7.81,17.452 17.451,17.452l662.792,-0c38.892,-0 41.421,-34.933 41.421,-34.933l75.665,0c9.636,0 17.451,-7.812 17.451,-17.45l0,-494.836l20.789,0c12.648,0 21.265,-13.613 15.719,-25.041l-30.051,-62.276Z" style="fill:#231f20;fill-rule:nonzero;"/><path d="M503.255,640.564l-154.035,-0c-48.383,-0 -94.879,-27.343 -121.654,-69.867l397.374,-0c-26.774,42.524 -73.299,69.867 -121.685,69.867Zm-227.209,-193.821c12.272,-0.783 19.99,-14.456 14.428,-25.387c-3.593,-7.025 -5.325,-16.349 -5.325,-28.509c-0,-19.188 7.776,-38.112 23.401,-49.789c14.95,-11.173 41.996,-3.35 46.373,15.362c3.808,22.585 39.304,14.941 34.115,-7.467c-5.073,-21.957 -23.185,-39.471 -44.574,-45.423c3.811,-13.798 13.828,-23.973 26.397,-26.114c7.56,23.373 29.516,40.32 55.377,40.32c13.166,0 25.295,-4.379 35.028,-11.75c19.153,4.757 33.327,21.483 33.327,41.329c-0,9.177 1.096,17.708 10.994,21.451c13.071,4.945 22.586,17.389 25.45,31.94c-13.67,6.113 -25.61,15.909 -34.521,28.509c-3.654,-1.734 -7.278,-3.213 -10.932,-4.442c-17.073,-5.702 -34.651,-5.607 -49.454,0.189c-18.238,7.151 -31.847,23.434 -34.619,41.515c-3.381,22.037 31.094,27.606 34.525,5.325c0.913,-5.827 6.174,-11.718 12.852,-14.333c14.135,-5.534 29.845,0.737 41.805,8.525c3.731,2.433 7.41,5.304 12.09,5.304c11.19,0.001 14.368,-8.648 19.056,-16.82c10.96,-19.092 37.241,-32.823 59.1,-24.956c7.776,2.8 14.983,7.835 20.898,13.557c12.711,12.292 19.479,30.134 19.479,47.687c-0,16.065 -5.26,31.31 -14.928,42.997l-355.101,0c-5.137,0 -12.991,-13.856 -14.916,-17.716c-15.123,-30.342 5.219,-69.103 39.675,-71.304Zm150.192,-208.498c12.852,-0 23.28,10.427 23.28,23.279c0,12.82 -10.428,23.279 -23.28,23.279c-12.821,-0 -23.277,-10.459 -23.277,-23.279c-0,-12.852 10.456,-23.279 23.277,-23.279Zm238.191,303.813c-4.103,-3.976 -10.256,-6.295 -17.343,-6.295c2.47,0 6.693,-20.015 7.173,-22.443c10.521,-53.367 -23.905,-112.558 -79.913,-117.853c-0.781,-0.074 -9.36,-0.271 -9.382,-0.384c-4.568,-21.765 -17.546,-40.539 -35.659,-51.439c-2.172,-29.295 -21.01,-54.116 -47.311,-65.394c1.605,-5.292 2.457,-10.931 2.457,-16.726c-0,-32.098 -26.114,-58.212 -58.213,-58.212c-26.113,0 -48.259,17.262 -55.599,40.982c-31.371,2.456 -56.195,27.121 -61.643,60.605c-35.219,11.876 -58.78,46.18 -58.78,87.948c0,8.506 0.692,16.285 2.08,23.373c-32.697,11.373 -56.07,42.936 -56.07,79.569c-0,14.459 3.621,28.068 10.016,39.974c-8.053,0 -15.217,0.434 -19.957,7.864c-3.886,6.092 -4.237,14.429 -1.366,20.99c28.977,66.307 95.035,110.879 164.301,110.879l154.035,0c69.27,0 135.325,-44.572 164.305,-110.879c4.089,-9.359 2.225,-17.371 -3.131,-22.559Z" style="fill:#231f20;fill-rule:nonzero;"/></g></svg>