<?xml version="1.0" encoding="UTF-8" standalone="no"?><!DOCTYPE svg PUBLIC "-//W3C//DTD SVG 1.1//EN" "http://www.w3.org/Graphics/SVG/1.1/DTD/svg11.dtd"><svg width="100%" height="100%" viewBox="0 0 571 571" version="1.1" xmlns="http://www.w3.org/2000/svg" xmlns:xlink="http://www.w3.org/1999/xlink" xml:space="preserve" xmlns:serif="http://www.serif.com/" style="fill-rule:evenodd;clip-rule:evenodd;stroke-linecap:round;stroke-linejoin:round;stroke-miterlimit:2;"><g><path d="M249.056,164.166l4.489,62.84c1.077,15.08 -11.459,27.61 -26.54,26.54l-62.841,-4.49c-9.692,9.69 -25.406,9.69 -35.099,0l-114.277,-114.28c-9.692,-9.69 -9.692,-25.41 -0,-35.1l84.892,-84.89c9.693,-9.69 25.406,-9.69 35.099,0l114.277,114.28c9.693,9.69 9.693,25.4 -0,35.1Z" style="fill:none;stroke:#030404;stroke-width:15.04px;"/><path d="M155.186,223.746c-5.748,5.75 -15.067,5.75 -20.815,0l-90.848,-90.84c-5.748,-5.75 -5.748,-15.07 -0,-20.82c5.748,-5.75 15.067,-5.75 20.815,0l90.848,90.85c5.748,5.75 5.748,15.07 -0,20.81Z" style="fill:none;stroke:#030404;stroke-width:15.04px;"/><path d="M223.752,155.186c-5.748,5.75 -15.067,5.75 -20.815,0l-90.848,-90.85c-5.747,-5.75 -5.747,-15.07 -0,-20.82c5.748,-5.74 15.067,-5.74 20.815,0l90.848,90.85c5.748,5.75 5.748,15.07 -0,20.82Z" style="fill:none;stroke:#030404;stroke-width:15.04px;"/><path d="M189.469,189.466c-5.748,5.75 -15.067,5.75 -20.815,0l-90.848,-90.85c-5.748,-5.75 -5.748,-15.06 -0,-20.81c5.748,-5.75 15.067,-5.75 20.815,0l90.848,90.84c5.747,5.75 5.747,15.07 -0,20.82Z" style="fill:none;stroke:#030404;stroke-width:15.04px;"/><path d="M390.883,370.066l-20.816,20.81l-135.679,-135.68l20.814,-20.81l135.681,135.68Z" style="fill:none;stroke:#030404;stroke-width:15.04px;"/><path d="M553.115,553.116c-13.186,13.18 -34.565,13.18 -47.752,0l-124.888,-124.89c-13.186,-13.19 -13.186,-34.57 -0,-47.75c13.186,-13.19 34.565,-13.19 47.752,0l124.888,124.88c13.186,13.19 13.186,34.57 -0,47.76Z" style="fill:none;stroke:#030404;stroke-width:15.04px;"/><path d="M289.215,310.026l-80.853,80.85l-20.814,-20.81l80.377,-80.38" style="fill:none;stroke:#030404;stroke-width:15.04px;"/><path d="M289.215,268.396l30.285,-30.28l20.815,20.81l-29.506,29.51" style="fill:none;stroke:#030404;stroke-width:15.04px;"/><path d="M25.315,553.116c-13.186,-13.19 -13.186,-34.57 -0,-47.76l124.889,-124.88c13.186,-13.19 34.565,-13.19 47.752,0c13.186,13.18 13.186,34.56 -0,47.75l-124.889,124.89c-13.186,13.18 -34.566,13.18 -47.752,0Z" style="fill:none;stroke:#030404;stroke-width:15.04px;"/><path d="M521.196,220.926c-23.8,23.8 -55.386,35.07 -86.558,33.8c-28.033,-1.13 -85.494,17.36 -106.896,-4.04c-22.138,-22.14 -3.672,-80.77 -4.126,-109.79c-0.473,-30.22 10.823,-60.6 33.888,-83.66c45.202,-45.21 118.49,-45.21 163.692,0c45.203,45.2 45.203,118.49 -0,163.69Z" style="fill:none;stroke:#030404;stroke-width:15.04px;"/><path d="M351.67,139.526c-0.336,-21.49 7.694,-43.08 24.088,-59.47c32.132,-32.14 84.227,-32.14 116.358,0" style="fill:none;stroke:#030404;stroke-width:15.04px;"/></g></svg>